<svg xmlns="http://www.w3.org/2000/svg" version="1.0" width="800.000000pt" height="800.000000pt" viewBox="0 0 800.000000 800.000000" preserveAspectRatio="xMidYMid meet">

<g transform="translate(0.000000,800.000000) scale(0.100000,-0.100000)" fill="#ffffff" stroke="none">
<path d="M3823 5990 c-360 -30 -715 -164 -1007 -381 -428 -318 -699 -764 -792 -1304 -24 -139 -24 -471 0 -610 36 -212 91 -384 181 -570 284 -587 844 -1000 1493 -1101 146 -23 458 -23 604 0 649 101 1209 514 1493 1101 90 186 145 358 181 570 24 139 24 471 0 610 -78 452 -275 830 -594 1137 -292 281 -684 475 -1075 532 -132 19 -355 27 -484 16z m373 -241 c215 -21 479 -106 669 -215 452 -258 752 -675 866 -1204 20 -92 23 -134 23 -330 0 -251 -11 -328 -81 -545 -281 -879 -1210 -1389 -2112 -1159 -582 148 -1052 591 -1234 1159 -70 217 -81 294 -81 545 0 251 11 328 81 545 182 569 652 1010 1235 1160 205 52 410 66 634 44z" fill="#ffffff"/>
<path d="M3160 5303 c-67 -64 -151 -155 -186 -202 -79 -105 -175 -295 -208 -413 -88 -309 -42 -640 135 -978 l50 -95 -40 45 c-132 147 -252 364 -297 535 -34 126 -39 305 -12 400 30 105 29 112 -7 40 -139 -279 -166 -658 -69 -969 36 -114 112 -269 188 -381 70 -102 73 -122 9 -52 -84 91 -152 204 -251 417 -19 40 -4 -49 25 -150 165 -574 576 -941 1173 -1046 149 -27 511 -27 660 0 597 105 1008 472 1173 1046 29 101 44 190 25 150 -99 -213 -167 -326 -251 -417 -64 -70 -61 -50 9 52 165 245 245 496 245 775 0 211 -43 408 -126 575 -36 72 -37 65 -7 -40 27 -95 22 -274 -12 -400 -45 -171 -165 -388 -297 -535 l-40 -45 50 95 c177 338 223 669 135 978 -33 118 -129 308 -208 413 -35 47 -119 138 -186 202 -126 122 -179 157 -91 62 57 -63 113 -170 136 -260 60 -235 -39 -553 -265 -854 l-67 -88 39 -78 c111 -220 163 -510 127 -711 -35 -202 -145 -400 -311 -560 -129 -125 -308 -249 -328 -227 -4 4 -10 136 -13 293 l-6 285 110 -114 c60 -63 109 -111 109 -108 0 4 -31 70 -70 147 -38 77 -70 144 -70 148 0 5 24 12 53 15 88 11 347 50 345 53 -2 1 -86 14 -188 29 -102 14 -192 29 -201 33 -14 6 -8 28 42 167 33 87 58 163 56 168 -1 4 -44 -53 -96 -128 -51 -75 -94 -135 -96 -133 -1 2 -13 427 -26 946 -13 518 -26 942 -29 942 -3 0 -16 -424 -29 -942 -13 -519 -25 -944 -26 -946 -2 -2 -45 58 -96 133 -52 75 -95 132 -96 128 -2 -5 23 -81 56 -168 50 -139 56 -161 42 -167 -9 -4 -99 -19 -201 -33 -102 -15 -186 -28 -188 -29 -2 -3 257 -42 346 -53 28 -3 52 -10 52 -15 0 -4 -31 -71 -70 -148 -38 -77 -70 -143 -70 -147 0 -3 49 45 109 108 l110 114 -6 -285 c-3 -157 -9 -289 -13 -293 -20 -22 -199 102 -328 227 -166 160 -276 358 -311 560 -36 201 16 491 127 711 l39 78 -67 88 c-135 181 -230 374 -264 541 -20 98 -20 236 -1 313 23 90 79 197 136 260 88 95 35 60 -91 -62z" fill="#ffffff"/>
</g>
</svg>